static_grf.mot
version=1
nRows=27
nColumns 19
inDegrees=yes
endheader
time	1_ground_force_vx	1_ground_force_vy	1_ground_force_vz	1_ground_force_px	1_ground_force_py	1_ground_force_pz	1_ground_torque_x	1_ground_torque_y	1_ground_torque_z	2_ground_force_vx	2_ground_force_vy	2_ground_force_vz	2_ground_force_px	2_ground_force_py	2_ground_force_pz	2_ground_torque_x	2_ground_torque_y	2_ground_torque_z
            0.005000	           -1.226854	          269.191116	          -11.591066	           -0.315883	            0.006285	           -0.423290	           -0.001044	            0.229110	           -0.009865	           -2.677942	          289.242871	           14.548231	           -0.310308	            0.005213	           -0.655579	            0.002778	           -0.300015	           -0.015090
            0.005500	           -0.906573	          270.093263	          -11.771421	           -0.314908	            0.006282	           -0.422481	           -0.001147	            0.341856	           -0.014899	           -2.395514	          288.875605	           14.546797	           -0.309958	            0.005212	           -0.654964	            0.002151	           -0.259425	           -0.013064
            0.006000	           -0.951521	          269.551111	          -11.452635	           -0.315784	            0.006282	           -0.422695	           -0.001093	            0.309625	           -0.013155	           -2.678545	          289.426571	           14.689672	           -0.309946	            0.005214	           -0.655435	            0.002043	           -0.220755	           -0.011204
            0.006500	           -0.768035	          269.550950	          -11.407234	           -0.315895	            0.006283	           -0.422826	           -0.000884	            0.310198	           -0.013127	           -2.582831	          288.874259	           14.734589	           -0.310155	            0.005212	           -0.655094	            0.002177	           -0.243445	           -0.012417
            0.007000	           -1.042667	          268.468909	          -11.319478	           -0.316211	            0.006286	           -0.423488	           -0.001009	            0.259711	           -0.010950	           -2.627728	          288.322002	           14.638782	           -0.310243	            0.005210	           -0.654557	            0.001993	           -0.218663	           -0.011102
            0.007500	           -1.089325	          269.191143	          -11.591407	           -0.316200	            0.006284	           -0.423150	           -0.001150	            0.284208	           -0.012238	           -2.442425	          288.875938	           14.406033	           -0.310220	            0.005211	           -0.654964	            0.002140	           -0.253076	           -0.012621
            0.008000	           -0.997118	          268.829843	          -11.409757	           -0.316094	            0.006287	           -0.423765	           -0.000945	            0.254811	           -0.010815	           -2.627687	          288.321668	           14.732638	           -0.310503	            0.005211	           -0.655077	            0.002099	           -0.230365	           -0.011771
            0.008500	           -0.997508	          268.470098	          -11.594727	           -0.316121	            0.006285	           -0.423392	           -0.001212	            0.326136	           -0.014085	           -2.489255	          288.875601	           14.452981	           -0.310280	            0.005212	           -0.655288	            0.002477	           -0.287440	           -0.014381
            0.009000	           -0.676412	          268.650002	          -11.503039	           -0.316011	            0.006286	           -0.423613	           -0.000888	            0.352629	           -0.015099	           -2.486473	          288.138034	           14.731921	           -0.310477	            0.005209	           -0.654702	            0.002523	           -0.292364	           -0.014948
            0.009500	           -0.860206	          268.470518	          -11.686780	           -0.316035	            0.006286	           -0.423616	           -0.000932	            0.290908	           -0.012663	           -2.440267	          288.322177	           14.779487	           -0.310299	            0.005211	           -0.654882	            0.002318	           -0.273872	           -0.014039
            0.010000	           -1.089373	          268.830808	          -11.638809	           -0.315890	            0.006287	           -0.423873	           -0.001223	            0.301773	           -0.013065	           -2.353296	          290.164653	           14.598305	           -0.309862	            0.005216	           -0.656016	            0.002662	           -0.328218	           -0.016513
            0.010500	           -1.089340	          268.650512	          -11.639582	           -0.315800	            0.006284	           -0.423148	           -0.001297	            0.319870	           -0.013859	           -2.584181	          289.242708	           14.688975	           -0.310251	            0.005213	           -0.655516	            0.002244	           -0.251192	           -0.012757
            0.011000	           -0.814250	          268.470330	          -11.641038	           -0.316231	            0.006287	           -0.423678	           -0.001014	            0.334293	           -0.014495	           -2.676613	          288.874590	           14.546917	           -0.309896	            0.005214	           -0.655289	            0.002198	           -0.237262	           -0.011948
            0.011500	           -0.952090	          269.552094	          -11.681915	           -0.315849	            0.006283	           -0.422731	           -0.001163	            0.329311	           -0.014272	           -2.677278	          289.058731	           14.547574	           -0.310372	            0.005211	           -0.655143	            0.001992	           -0.215098	           -0.010825
            0.012000	           -0.997217	          269.370609	          -11.407438	           -0.315991	            0.006284	           -0.423008	           -0.001044	            0.281975	           -0.011941	           -2.534734	          288.506816	           14.545543	           -0.310255	            0.005211	           -0.654931	            0.002177	           -0.247732	           -0.012490
            0.012500	           -1.226594	          269.010427	          -11.500127	           -0.315732	            0.006285	           -0.423388	           -0.000959	            0.210282	           -0.008990	           -2.673914	          288.137692	           14.638145	           -0.310554	            0.005209	           -0.654768	            0.002081	           -0.224297	           -0.011395
            0.013000	           -1.089520	          269.011240	          -11.683892	           -0.315622	            0.006283	           -0.422930	           -0.001228	            0.303098	           -0.013164	           -2.299779	          288.323186	           14.638643	           -0.310297	            0.005211	           -0.654882	            0.002297	           -0.287979	           -0.014621
            0.013500	           -1.226674	          268.830388	          -11.546756	           -0.316000	            0.006285	           -0.423368	           -0.000866	            0.189753	           -0.008150	           -2.675181	          288.505472	           14.780243	           -0.310385	            0.005211	           -0.654931	            0.002251	           -0.242720	           -0.012435
            0.014000	           -0.997313	          268.649940	          -11.502242	           -0.316214	            0.006284	           -0.423194	           -0.001016	            0.273701	           -0.011719	           -2.718811	          287.585375	           14.542337	           -0.310574	            0.005208	           -0.654359	            0.002057	           -0.217610	           -0.011004
            0.014500	           -1.088738	          268.469294	          -11.411076	           -0.316078	            0.006285	           -0.423363	           -0.001046	            0.258026	           -0.010967	           -2.630387	          289.058565	           14.641410	           -0.309974	            0.005214	           -0.655402	            0.002313	           -0.254144	           -0.012873
            0.015000	           -1.271784	          267.928038	          -11.321228	           -0.316058	            0.006286	           -0.423550	           -0.001391	            0.293026	           -0.012382	           -2.770231	          288.873582	           14.734669	           -0.310364	            0.005212	           -0.655355	            0.001592	           -0.166046	           -0.008470
            0.015500	           -0.996857	          268.649153	          -11.318818	           -0.316213	            0.006285	           -0.423235	           -0.001062	            0.286199	           -0.012058	           -2.816395	          288.689105	           14.780960	           -0.310272	            0.005212	           -0.655175	            0.002296	           -0.235378	           -0.012051
            0.016000	           -0.768472	          268.830870	          -11.639606	           -0.316049	            0.006285	           -0.423242	           -0.000840	            0.293792	           -0.012720	           -2.626420	          287.953888	           14.590540	           -0.310277	            0.005210	           -0.654784	            0.002055	           -0.225267	           -0.011414
            0.016500	           -0.997037	          269.009881	          -11.363128	           -0.315682	            0.006283	           -0.422808	           -0.001052	            0.283751	           -0.011986	           -2.484499	          287.585719	           14.683022	           -0.310165	            0.005209	           -0.654227	            0.002696	           -0.312101	           -0.015935
            0.017000	           -1.134809	          268.469678	          -11.502674	           -0.315952	            0.006286	           -0.423657	           -0.000926	            0.218989	           -0.009383	           -2.677175	          289.057894	           14.782214	           -0.310370	            0.005213	           -0.655467	            0.002079	           -0.224481	           -0.011480
            0.017500	           -0.904812	          267.927715	          -11.230426	           -0.316219	            0.006287	           -0.423673	           -0.000836	            0.247519	           -0.010375	           -2.580817	          288.321669	           14.779546	           -0.310370	            0.005211	           -0.654947	            0.002152	           -0.240378	           -0.012322
            0.018000	           -0.951014	          268.649162	          -11.318932	           -0.315928	            0.006284	           -0.423095	           -0.000963	            0.271999	           -0.011460	           -2.485246	          287.770529	           14.495967	           -0.310254	            0.005209	           -0.654473	            0.002338	           -0.270673	           -0.013635
